<svg width="20" height="20" viewBox="0 0 20 20" fill="none" xmlns="http://www.w3.org/2000/svg">
<path opacity="0.3" d="M7.49963 2.5C9.34047 2.5 10.8334 3.99221 10.8336 5.83301C10.8336 7.67396 9.34058 9.16699 7.49963 9.16699C5.65883 9.16682 4.16663 7.67385 4.16663 5.83301C4.1668 3.99232 5.65894 2.50018 7.49963 2.5ZM15.8336 2.5C16.2936 2.50018 16.6664 2.87304 16.6666 3.33301V5H18.3336C18.7936 5.00018 19.1664 5.37303 19.1666 5.83301C19.1666 6.29314 18.7937 6.66682 18.3336 6.66699H16.6666V8.33301C16.6666 8.79313 16.2937 9.16681 15.8336 9.16699C15.3734 9.16699 14.9996 8.79324 14.9996 8.33301V6.66699H13.3336C12.8734 6.66699 12.4996 6.29325 12.4996 5.83301C12.4998 5.37292 12.8735 5 13.3336 5H14.9996V3.33301C14.9998 2.87292 15.3735 2.5 15.8336 2.5Z" fill="white"/>
<path d="M0.00054307 16.8327C0.323549 12.8554 3.55159 10.8333 7.48612 10.8333C11.476 10.8333 14.7541 12.7443 14.9983 16.8333C15.008 16.9962 14.9983 17.5 14.3722 17.5C11.2843 17.5 6.6956 17.5 0.606252 17.5C0.39726 17.5 -0.0170515 17.0493 0.00054307 16.8327Z" fill="white"/>
</svg>
