<svg width="40" height="40" viewBox="0 0 40 40" fill="none" xmlns="http://www.w3.org/2000/svg">
<g clip-path="url(#clip0_51_120)">
<path d="M33.7813 36.4549L33.7187 35.8915C33.6939 35.6686 33.4932 35.5079 33.2703 35.5327L33.2352 35.5366L32.6295 30.6905C32.4976 29.6364 31.7723 28.7516 30.7645 28.4156L27.3983 27.2936C26.9361 27.1394 26.429 27.2375 26.0726 27.5413L25.081 27.2108C24.5177 27.023 24.1379 26.496 24.1379 25.9023V23.678L27.1087 22.4401C28.6508 21.7978 29.6551 20.2912 29.6551 18.6207V17.931C30.7978 17.931 31.7241 17.0047 31.7241 15.862C31.7241 15.517 31.6392 15.1919 31.4897 14.9058C31.6401 14.5653 31.7241 14.1891 31.7241 13.7931C31.7241 13.5138 31.6702 13.2496 31.5931 12.9956C32.0992 12.4955 32.4138 11.8021 32.4138 11.0345C32.4138 10.7551 32.3599 10.491 32.2827 10.237C32.7889 9.73688 33.1034 9.04352 33.1034 8.27584C33.1034 6.94904 32.1661 5.84257 30.9179 5.57852C30.9863 5.33826 31.0345 5.08973 31.0345 4.82758C31.0345 3.30404 29.7994 2.06896 28.2758 2.06896C27.7037 2.06896 27.1723 2.24327 26.7316 2.54155C26.3552 1.46595 25.3421 0.689654 24.1379 0.689654C23.4577 0.689654 22.843 0.945257 22.362 1.35345C21.8809 0.546292 21.008 0 20.0001 0C18.9922 0 18.1194 0.546292 17.6381 1.35345C17.1571 0.945257 16.5424 0.689654 15.8622 0.689654C14.658 0.689654 13.6449 1.46595 13.2685 2.54155C12.8277 2.24327 12.2963 2.06896 11.7242 2.06896C10.2007 2.06896 8.96562 3.30404 8.96562 4.82758C8.96562 5.08973 9.0139 5.33826 9.08217 5.57852C7.8339 5.84257 6.89658 6.94904 6.89658 8.27584C6.89658 9.04352 7.21114 9.73688 7.71726 10.237C7.64011 10.491 7.58623 10.7551 7.58623 11.0345C7.58623 11.8021 7.9008 12.4955 8.40692 12.9956C8.32976 13.2496 8.27588 13.5138 8.27588 13.7931C8.27588 14.1891 8.35993 14.5653 8.51028 14.9058C8.36088 15.1919 8.27588 15.517 8.27588 15.862C8.27588 17.0047 9.20217 17.931 10.3448 17.931V18.6207C10.3448 20.2911 11.3492 21.7977 12.8912 22.4403L15.8621 23.6781V25.9024C15.8621 26.4961 15.4822 27.0231 14.919 27.2109L13.9274 27.5414C13.571 27.2376 13.0639 27.1395 12.6016 27.2936L9.23554 28.4157C8.22769 28.7517 7.50235 29.6365 7.37054 30.6906L6.76477 35.5367L6.72968 35.5328C6.50683 35.508 6.30606 35.6686 6.28132 35.8916L6.21873 36.455C6.19399 36.6779 6.35459 36.8786 6.57744 36.9034L7.58623 37.0154V38.6206C7.58623 39.3823 8.20381 39.9999 8.96554 39.9999H12.4138H27.5862H31.0345C31.7963 39.9999 32.4138 39.3823 32.4138 38.6206V37.0154L33.4226 36.9033C33.6454 36.8785 33.8061 36.6778 33.7813 36.4549Z" fill="#C38762"/>
<path d="M32.2828 10.237C32.7889 9.73687 33.1034 9.04351 33.1034 8.27584C33.1034 6.94904 32.1661 5.84257 30.9179 5.57852C30.9862 5.33826 31.0344 5.08973 31.0344 4.82758C31.0344 3.30404 29.7993 2.06896 28.2758 2.06896C27.7037 2.06896 27.1723 2.24327 26.7316 2.54155C26.3551 1.46595 25.342 0.689654 24.1379 0.689654C23.4576 0.689654 22.843 0.945256 22.3619 1.35345C21.8808 0.546292 21.008 0 20.0001 0C18.9921 0 18.1194 0.546292 17.6381 1.35345C17.157 0.945256 16.5424 0.689654 15.8621 0.689654C14.658 0.689654 13.6449 1.46595 13.2684 2.54155C12.8277 2.24327 12.2963 2.06896 11.7242 2.06896C10.2007 2.06896 8.96559 3.30404 8.96559 4.82758C8.96559 5.08973 9.01387 5.33826 9.08214 5.57852C7.83387 5.84257 6.89655 6.94904 6.89655 8.27584C6.89655 9.04351 7.21111 9.73687 7.71723 10.237C7.64008 10.491 7.5862 10.7551 7.5862 11.0345C7.5862 11.8021 7.90077 12.4955 8.40689 12.9956C8.32973 13.2496 8.27585 13.5138 8.27585 13.7931C8.27585 15.3166 9.51094 16.5517 11.0345 16.5517C11.0347 16.5517 11.035 16.5517 11.0353 16.5517H28.9647C28.9649 16.5517 28.9652 16.5517 28.9655 16.5517C30.4891 16.5517 31.7242 15.3166 31.7242 13.7931C31.7242 13.5138 31.6703 13.2496 31.5931 12.9956C32.0992 12.4955 32.4138 11.8021 32.4138 11.0345C32.4137 10.7551 32.3599 10.491 32.2828 10.237Z" fill="#623F33"/>
<path d="M27.5861 40.0002V36.5519H33.362L32.6293 30.6908C32.4975 29.6366 31.7722 28.7518 30.7643 28.4159L27.3982 27.2938C26.812 27.0984 26.1525 27.3071 25.8214 27.8288C24.599 29.755 22.4503 31.0346 20 31.0346C17.5498 31.0346 15.401 29.7549 14.1785 27.8287C13.8474 27.307 13.1879 27.0983 12.6017 27.2937L9.23557 28.4158C8.22773 28.7517 7.50239 29.6366 7.37058 30.6907L6.71463 35.9383L12.4138 36.5518V40.0001H27.5862V40.0002H27.5861Z" fill="#FFD739"/>
<path d="M24.138 23.6781L15.8621 21.839V25.9024C15.8621 26.3988 15.5875 26.8361 15.171 27.0799C20.955 28.0923 24.138 23.6781 24.138 23.6781Z" fill="#A46D4D"/>
<path d="M29.6551 13.7931V11.7241C29.6551 9.81971 28.1112 7.58618 26.2068 7.58618H13.7931C11.8886 7.58618 10.3448 9.81971 10.3448 11.7241V13.7931C9.20214 13.7931 8.27585 14.7194 8.27585 15.862C8.27585 17.0047 9.20214 17.931 10.3448 17.931V18.6206C10.3448 20.2911 11.3492 21.7977 12.8912 22.4403L17.3473 24.297C18.1879 24.6473 19.0894 24.8275 20 24.8275C20.9105 24.8275 21.8119 24.6472 22.6525 24.297L27.1088 22.4402C28.6507 21.7978 29.6551 20.2912 29.6551 18.6206V17.931C30.7978 17.931 31.7241 17.0047 31.7241 15.862C31.7241 14.7194 30.7978 13.7931 29.6551 13.7931Z" fill="#D29771"/>
<path d="M15.1725 16.5517C14.7932 16.5517 14.4828 16.2413 14.4828 15.862V15.1724C14.4828 14.7931 14.7932 14.4827 15.1725 14.4827C15.5518 14.4827 15.8622 14.7931 15.8622 15.1724V15.862C15.8622 16.2413 15.5517 16.5517 15.1725 16.5517Z" fill="#623F33"/>
<path d="M24.8275 16.5517C24.4482 16.5517 24.1379 16.2413 24.1379 15.862V15.1724C24.1379 14.7931 24.4482 14.4827 24.8275 14.4827C25.2069 14.4827 25.5172 14.7931 25.5172 15.1724V15.862C25.5172 16.2413 25.2069 16.5517 24.8275 16.5517Z" fill="#623F33"/>
<path d="M20 21.3981C18.7739 21.3981 17.627 21.0964 16.8535 20.5701C16.5387 20.3559 16.4569 19.9269 16.6713 19.6121C16.8851 19.2976 17.3145 19.2157 17.6294 19.4299C18.1715 19.7986 19.0578 20.0189 20 20.0189C20.9423 20.0189 21.8286 19.7986 22.3707 19.4299C22.6862 19.2151 23.1146 19.2972 23.3287 19.6121C23.5432 19.9269 23.4614 20.3559 23.1466 20.5701C22.3731 21.0964 21.2262 21.3981 20 21.3981Z" fill="#A46D4D"/>
<path d="M12.4139 37.0723V35.5115C12.4139 34.8479 12.1748 34.2067 11.7404 33.7052L7.94566 29.3248C7.63946 29.7124 7.43446 30.1808 7.37075 30.6905L6.65041 36.4532C7.74721 36.5191 10.6648 36.8609 12.4139 37.0723Z" fill="#FFC33D"/>
<path d="M12.4139 36.1643L6.72976 35.5327C6.50683 35.508 6.30615 35.6686 6.28132 35.8914L6.21873 36.4549C6.19399 36.6777 6.35459 36.8785 6.57744 36.9032L12.4139 37.5518V36.1643Z" fill="#FFB440"/>
<path d="M27.5862 37.0723V35.5115C27.5862 34.8479 27.8253 34.2067 28.2597 33.7052L32.0544 29.3248C32.3606 29.7124 32.5656 30.1808 32.6293 30.6905L33.3497 36.4532C32.2529 36.5191 29.3352 36.8609 27.5862 37.0723Z" fill="#FFC33D"/>
<path d="M27.5862 36.1643L33.2703 35.5327C33.4932 35.508 33.6939 35.6686 33.7187 35.8914L33.7813 36.4549C33.8061 36.6777 33.6454 36.8785 33.4226 36.9032L27.5862 37.5518V36.1643Z" fill="#FFB440"/>
<path d="M10.3448 7.67242V13.7931C9.20214 13.7931 8.27585 14.7194 8.27585 15.8621C8.27585 17.0047 9.20214 17.931 10.3448 17.931V18.6207C10.3448 20.2912 11.3492 21.7978 12.8912 22.4403L17.3472 24.297C17.5653 24.3879 17.7879 24.4662 18.0133 24.534C16.044 23.0934 14.7332 21.834 13.9651 21.0106C13.4063 20.4115 13.1034 19.6208 13.1034 18.8015V11.0149C13.8375 10.9331 14.4927 10.594 14.9813 10.0914C15.3575 10.2535 15.7713 10.3448 16.2069 10.3448C17.1549 10.3448 17.993 9.9107 18.5622 9.24087C18.9819 9.49889 19.4712 9.65518 20 9.65518C20.7081 9.65518 21.3473 9.38052 21.8358 8.9419C22.3712 9.38087 23.0468 9.65518 23.7931 9.65518C25.1106 9.65518 26.2282 8.83147 26.6762 7.67242H10.3448Z" fill="#C38762"/>
<path d="M29.6551 8.27584C29.6103 8.27584 29.5685 8.28618 29.5243 8.28903C29.6043 8.06868 29.6551 7.83411 29.6551 7.58618C29.6551 6.44351 28.7288 5.51722 27.5862 5.51722C27.3352 5.51722 27.0977 5.56869 26.8751 5.6505C26.7645 4.03714 25.4346 2.75861 23.7931 2.75861C22.3799 2.75861 21.2007 3.70903 20.8257 5.00127C20.5725 4.89067 20.2939 4.82757 20 4.82757C19.2259 4.82757 18.5593 5.25765 18.2044 5.88705C17.7702 5.24783 17.0379 4.82757 16.207 4.82757C15.2194 4.82757 14.3731 5.42222 13.9993 6.27153C13.6198 5.81446 13.0543 5.51722 12.4139 5.51722C11.6452 5.51722 10.9749 5.9367 10.6182 6.55894C10.5708 6.5542 10.5227 6.5517 10.4741 6.5517C9.68852 6.5517 9.05171 7.18851 9.05171 7.97411C9.05171 8.20584 9.10826 8.42394 9.20662 8.6173C8.64602 8.98739 8.27585 9.62273 8.27585 10.3448C8.27585 11.4875 9.20214 12.4138 10.3448 12.4138C11.4875 12.4138 12.4138 11.4875 12.4138 10.3448C12.4138 10.0969 12.363 9.8623 12.283 9.64195C12.3271 9.6448 12.369 9.65514 12.4138 9.65514C13.1878 9.65514 13.8545 9.22506 14.2093 8.59566C14.6435 9.23489 15.376 9.65514 16.2069 9.65514C17.1945 9.65514 18.0407 9.06049 18.4145 8.21118C18.794 8.66825 19.3594 8.96549 20 8.96549C20.6864 8.96549 21.2902 8.62739 21.6666 8.11265C22.2226 8.63799 22.9678 8.96549 23.7931 8.96549C24.4971 8.96549 25.139 8.72204 25.6598 8.32696C25.9583 9.10247 26.7054 9.65514 27.5862 9.65514C27.631 9.65514 27.6728 9.6448 27.7169 9.64195C27.6369 9.8623 27.5862 10.0969 27.5862 10.3448C27.5862 11.4875 28.5124 12.4138 29.6551 12.4138C30.7978 12.4138 31.7241 11.4875 31.7241 10.3448C31.7241 9.20213 30.7978 8.27584 29.6551 8.27584Z" fill="#623F33"/>
</g>
<defs>
<clipPath id="clip0_51_120">
<rect width="40" height="40" fill="white"/>
</clipPath>
</defs>
</svg>
