<svg width="25" height="24" viewBox="0 0 25 24" fill="none" xmlns="http://www.w3.org/2000/svg">
<path d="M21.3307 3.5625C22.784 3.5625 23.9624 4.62274 23.9625 5.93066V13.0361L23.9801 17.4336C23.9818 17.8674 23.4676 18.0978 23.1451 17.8076L20.4752 15.4043H16.6666V12.1875C16.6666 10.5306 15.3235 9.1875 13.6666 9.1875H6.41858V5.93066C6.41873 4.62274 7.59713 3.5625 9.05042 3.5625H21.3307Z" fill="white"/>
<path opacity="0.3" d="M12.4847 11.0625C13.6352 11.0627 14.5677 11.9021 14.5677 12.9375V17.625C14.5677 18.6604 13.6352 19.4998 12.4847 19.5H4.27185L2.92126 20.6631C2.59717 20.9423 2.09509 20.7119 2.09509 20.2842V17.9287C2.0772 17.8299 2.06775 17.7284 2.06775 17.625V12.9375C2.06775 11.9021 3.00031 11.0627 4.15076 11.0625H12.4847ZM9.84412 15.75C9.58523 15.75 9.37537 15.9599 9.37537 16.2188C9.37537 16.4776 9.58523 16.6875 9.84412 16.6875H12.0316C12.2903 16.6873 12.5004 16.4775 12.5004 16.2188C12.5004 15.96 12.2903 15.7502 12.0316 15.75H9.84412ZM6.71912 13.875C6.46023 13.875 6.25037 14.0849 6.25037 14.3438C6.25037 14.6026 6.46023 14.8125 6.71912 14.8125H12.0316C12.2903 14.8123 12.5004 14.6025 12.5004 14.3438C12.5004 14.085 12.2903 13.8752 12.0316 13.875H6.71912Z" fill="white"/>
</svg>
