<svg width="29" height="30" viewBox="0 0 29 30" fill="none" xmlns="http://www.w3.org/2000/svg">
<rect x="4.83325" y="5.33336" width="8.45833" height="8.45833" rx="1.5" fill="white"/>
<path opacity="0.3" d="M11.7913 16.2084C12.6197 16.2084 13.2913 16.8799 13.2913 17.7084V23.1664C13.2913 23.9948 12.6197 24.6664 11.7913 24.6664H6.33325C5.50483 24.6664 4.83325 23.9948 4.83325 23.1664V17.7084C4.83325 16.8799 5.50483 16.2084 6.33325 16.2084H11.7913ZM22.6663 16.2084C23.4947 16.2084 24.1663 16.8799 24.1663 17.7084V23.1664C24.1663 23.9948 23.4947 24.6664 22.6663 24.6664H17.2083C16.3798 24.6664 15.7083 23.9948 15.7083 23.1664V17.7084C15.7083 16.8799 16.3798 16.2084 17.2083 16.2084H22.6663ZM22.6663 5.33336C23.4947 5.33336 24.1663 6.00493 24.1663 6.83336V12.2914C24.1663 13.1198 23.4947 13.7914 22.6663 13.7914H17.2083C16.3798 13.7914 15.7083 13.1198 15.7083 12.2914V6.83336C15.7083 6.00493 16.3798 5.33336 17.2083 5.33336H22.6663Z" fill="white"/>
</svg>
