<svg width="40" height="40" viewBox="0 0 40 40" fill="none" xmlns="http://www.w3.org/2000/svg">
<g clip-path="url(#clip0_51_171)">
<path d="M33.0506 35.6889L32.9191 35.2382C32.8555 35.0206 32.6435 34.8871 32.4254 34.9149L32.2866 33.8738L31.9991 31.7173C31.9991 31.7172 31.9991 31.7171 31.9991 31.717L31.9657 31.4665C31.8147 30.3336 31.1127 29.3495 29.9568 28.7715L28.6021 28.0942C28.3827 27.9845 28.2152 28.1257 28.0541 28.3049L25.0812 27.2111C24.518 27.0233 24.1381 26.4963 24.1381 25.9026V23.6782L27.1089 22.4404C28.6507 21.7978 29.6551 20.2912 29.6551 18.6207V12.4138C29.6551 10.5093 28.1112 7.58618 26.2068 7.58618H13.793C11.8886 7.58618 10.3448 10.5093 10.3448 12.4138V18.6207C10.3448 20.2911 11.3492 21.7977 12.8912 22.4403L15.862 23.6782V25.9024C15.862 26.4961 15.4821 27.0232 14.9189 27.2109L11.9461 28.3047C11.7849 28.1255 11.6174 27.9843 11.3981 28.094L10.0434 28.7714C8.88736 29.3494 8.18546 30.3335 8.03443 31.4664L8.00107 31.7169C8.00107 31.717 8.00107 31.717 8.00107 31.7171L7.71357 33.8736L7.57477 34.9147C7.35667 34.887 7.14469 35.0204 7.08107 35.2381L6.94952 35.6887C6.87908 35.93 7.01762 36.1826 7.25891 36.253L7.39124 36.2916L7.20917 37.6575C7.04348 38.8979 8.00831 40 9.2596 40H30.7403C31.9916 40 32.9565 38.8979 32.7911 37.6576L32.609 36.2917L32.7413 36.2531C32.9825 36.1828 33.1211 35.9301 33.0506 35.6889Z" fill="#F6B47B"/>
<path d="M15.862 23.5345V25.9025C15.862 26.3933 15.6019 26.838 15.1938 27.0836C20.6898 28.0332 23.8311 23.911 24.1165 23.5345H15.862Z" fill="#E2A071"/>
<path d="M27.1088 22.4403L22.6524 24.2971C21.8119 24.6473 20.9104 24.8276 19.9999 24.8276C19.0894 24.8276 18.1879 24.6473 17.3473 24.2971L12.8912 22.4404C11.3492 21.7978 10.3448 20.2912 10.3448 18.6207V12.4138C10.3448 10.5094 11.8887 7.58618 13.7931 7.58618H26.2069C28.1113 7.58618 29.6552 10.5094 29.6552 12.4138V18.6207C29.6552 20.2912 28.6508 21.7978 27.1088 22.4403Z" fill="#FDC88E"/>
<path d="M15.1724 16.5518C14.7931 16.5518 14.4828 16.2414 14.4828 15.8621V15.1724C14.4828 14.7931 14.7931 14.4828 15.1724 14.4828C15.5517 14.4828 15.8621 14.7931 15.8621 15.1724V15.8621C15.8621 16.2414 15.5517 16.5518 15.1724 16.5518Z" fill="#623F33"/>
<path d="M24.8276 16.5518C24.4483 16.5518 24.1379 16.2414 24.1379 15.8621V15.1724C24.1379 14.7931 24.4483 14.4828 24.8276 14.4828C25.2069 14.4828 25.5173 14.7931 25.5173 15.1724V15.8621C25.5173 16.2414 25.2069 16.5518 24.8276 16.5518Z" fill="#623F33"/>
<path d="M20 21.3981C18.7739 21.3981 17.627 21.0964 16.8535 20.5701C16.5386 20.356 16.4567 19.9269 16.6713 19.6121C16.8851 19.2976 17.3145 19.2157 17.6293 19.43C18.1715 19.7987 19.0578 20.0189 20 20.0189C20.9423 20.0189 21.8285 19.7987 22.3707 19.43C22.6862 19.2151 23.1146 19.2973 23.3287 19.6121C23.5432 19.9269 23.4614 20.356 23.1466 20.5701C22.3731 21.0964 21.2261 21.3981 20 21.3981Z" fill="#E2A071"/>
<path d="M10.3448 13.2018V18.6208C10.3448 20.2912 11.3492 21.798 12.8912 22.4405L17.3473 24.2972C17.5654 24.3881 17.7879 24.4663 18.0134 24.5342C16.0441 23.0936 14.7332 21.8342 13.9651 21.0107C13.4063 20.4116 13.1035 19.621 13.1035 18.8017V14.9473C15.0776 14.2582 20.1849 11.995 20.2558 8.27607C20.2625 7.92461 20.2572 7.61124 20.2416 7.33185C16.9959 11.7685 12.4992 12.9319 10.3448 13.2018Z" fill="#F6B47B"/>
<path d="M31.9396 22.939C31.9396 21.4777 30.7349 20.8602 30.7349 19.6158C30.7349 18.3714 32.3003 18.0366 32.3003 16.1711C32.3003 14.9241 31.7446 13.9559 31.3759 13.0636C33.4776 3.95457 25.5938 0 23.4483 0C21.2069 0 20 0.689655 20 0.689655C20 0.689655 18.7931 0 16.5517 0C14.4062 0 6.52241 3.95457 8.62405 13.0635C8.25543 13.9558 7.69974 14.924 7.69974 16.171C7.69974 18.0366 9.26508 18.3713 9.26508 19.6157C9.26508 20.8601 8.06034 21.4777 8.06034 22.9389C8.06034 24.4002 9.22069 25.1078 9.59767 26.2072C9.77008 26.71 9.56896 28.2184 9.56896 28.2184C9.56896 28.2184 10.7974 26.1915 10.1509 24.3295C9.50431 22.4675 10.2543 22.2672 10.8405 21.4541C11.7241 20.2284 11.6043 18.8534 10.8827 17.517C10.4166 16.6539 10.5393 15.8202 11.1925 15.2397C11.88 14.6289 12.0412 13.5747 12.0422 13.5679C15.3072 12.6121 20 10.6972 20 7.58621C20 10.6972 24.6928 12.6121 27.9578 13.5679C27.9588 13.5746 28.12 14.6289 28.8074 15.2397C29.4606 15.8202 29.5833 16.6539 29.1172 17.517C28.3956 18.8534 28.2758 20.2285 29.1594 21.4541C29.7456 22.2672 30.4956 22.4675 29.849 24.3295C29.2025 26.1914 30.4309 28.2184 30.4309 28.2184C30.4309 28.2184 30.2298 26.7099 30.4022 26.2072C30.7793 25.1078 31.9396 24.4002 31.9396 22.939Z" fill="#6E4439"/>
<path d="M31.9656 31.4667C31.8146 30.3338 31.1126 29.3496 29.9567 28.7717L28.602 28.0944C28.3516 27.9692 28.1688 28.1707 27.986 28.3827C24.3105 32.644 20.0002 34.4833 20.0002 34.4833H20.0001H20C20 34.4833 15.6898 32.644 12.0143 28.3827C11.8314 28.1707 11.6486 27.9692 11.3982 28.0944L10.0436 28.7717C8.88753 29.3497 8.18563 30.3338 8.0346 31.4667L7.47322 35.6767C9.29494 36.304 12.4137 37.2416 12.4137 37.2416V40.0002H27.5862V37.2416C27.5862 37.2416 30.7049 36.304 32.5269 35.6767L31.9656 31.4667Z" fill="#57B9DD"/>
<path d="M12.3967 37.0307C12.3545 36.2106 12.0807 35.4182 11.5862 34.7587L8.34849 30.4418C8.19219 30.7637 8.08237 31.1063 8.03426 31.4666L7.48763 35.5667L12.3967 37.0307Z" fill="#43A0C5"/>
<path d="M6.9493 35.689C6.87887 35.9303 7.01741 36.183 7.25861 36.2533L12.4138 37.7571V37.2415C12.4138 36.9157 12.3626 36.5966 12.2878 36.2835L7.64508 34.9292C7.40387 34.8589 7.15129 34.9973 7.08094 35.2385L6.9493 35.689Z" fill="#258CAC"/>
<path d="M27.6033 37.0307C27.6454 36.2106 27.9192 35.4182 28.4138 34.7587L31.6515 30.4418C31.8078 30.7637 31.9176 31.1063 31.9657 31.4666L32.5123 35.5667L27.6033 37.0307Z" fill="#43A0C5"/>
<path d="M33.0507 35.689C33.1211 35.9303 32.9826 36.183 32.7414 36.2533L27.5862 37.7571V37.2415C27.5862 36.9157 27.6374 36.5966 27.7122 36.2835L32.3549 34.9292C32.5961 34.8589 32.8487 34.9973 32.9191 35.2385L33.0507 35.689Z" fill="#258CAC"/>
<path d="M16.5517 0C14.4062 0 6.5225 3.95457 8.62405 13.0635C8.25543 13.9558 7.69974 14.924 7.69974 16.171C7.69974 18.0366 9.26508 18.3713 9.26508 19.6157C9.26508 20.8601 8.06034 21.4777 8.06034 22.9389C8.06034 24.4002 9.22068 25.1078 9.59767 26.2072C9.77008 26.71 9.56896 28.2184 9.56896 28.2184C9.56896 28.2184 10.7974 26.1915 10.1509 24.3295C9.5043 22.4675 10.2543 22.2672 10.8405 21.4541C11.7241 20.2284 11.6043 18.8534 10.8827 17.517C10.4166 16.6539 10.5393 15.8202 11.1925 15.2397C11.88 14.6289 12.0412 13.5747 12.0421 13.5679L12.0415 13.5678C12.0417 13.5678 12.0419 13.5677 12.0421 13.5677C10.0939 4.60069 17.8614 0.69681 20 0.69V0.689655C20 0.689655 18.7931 0 16.5517 0Z" fill="#5E342E"/>
</g>
<defs>
<clipPath id="clip0_51_171">
<rect width="40" height="40" fill="white"/>
</clipPath>
</defs>
</svg>
